REM DIRINDEX 1\2\4\8,1\2\4\9,1\2\4\10,1\2\5\11,1\2\5\12,1\2\5\13,1\2\5\14,1\2\5\15,1\3\6\16,1\3\6\17,1\3\6\18,1\3\7\19,1\3\7\20,1\3\7\21,1\3\7\22,1\3\7\23
REM DIRNAME "folder01","folder02","folder03","folder04","folder05","folder06","folder07","folder08","folder09","folder10","folder11","folder12","folder13","folder14","folder15","folder16","folder17","folder18","folder19","folder20","folder21","folder22","folder23"
TITLE ""
FILE "LR_black_phrase_E_05.mp3" MP3
  TRACK 01 AUDIO
    TITLE "0:"
    INDEX 01 00:00:00
  TRACK 02 AUDIO
    TITLE "8:cjc171_01201"
    INDEX 01 00:00:14
  TRACK 03 AUDIO
    TITLE "0:"
    INDEX 01 00:01:45
  TRACK 04 AUDIO
    TITLE "9:cjc171_01202"
    INDEX 01 00:01:65
  TRACK 05 AUDIO
    TITLE "0:"
    INDEX 01 00:03:65
  TRACK 06 AUDIO
    TITLE "10:cjc171_01203"
    INDEX 01 00:04:39
  TRACK 07 AUDIO
    TITLE "0:"
    INDEX 01 00:06:40
  TRACK 08 AUDIO
    TITLE "8:cjc171_01204"
    INDEX 01 00:07:48
  TRACK 09 AUDIO
    TITLE "0:"
    INDEX 01 00:09:01
  TRACK 10 AUDIO
    TITLE "9:cjc171_01205"
    INDEX 01 00:09:35
  TRACK 11 AUDIO
    TITLE "0:"
    INDEX 01 00:11:63
  TRACK 12 AUDIO
    TITLE "10:cjc171_01206"
    INDEX 01 00:12:43
  TRACK 13 AUDIO
    TITLE "0:"
    INDEX 01 00:14:73
  TRACK 14 AUDIO
    TITLE "8:cjc171_01207"
    INDEX 01 00:16:01
  TRACK 15 AUDIO
    TITLE "0:"
    INDEX 01 00:17:24
  TRACK 16 AUDIO
    TITLE "9:cjc171_01208"
    INDEX 01 00:17:54
  TRACK 17 AUDIO
    TITLE "0:"
    INDEX 01 00:20:31
  TRACK 18 AUDIO
    TITLE "10:cjc171_01209"
    INDEX 01 00:21:09
  TRACK 19 AUDIO
    TITLE "0:"
    INDEX 01 00:23:60
  TRACK 20 AUDIO
    TITLE "8:cjc171_01210"
    INDEX 01 00:24:64
  TRACK 21 AUDIO
    TITLE "0:"
    INDEX 01 00:26:16
  TRACK 22 AUDIO
    TITLE "9:cjc171_01211"
    INDEX 01 00:26:47
  TRACK 23 AUDIO
    TITLE "0:"
    INDEX 01 00:29:43
  TRACK 24 AUDIO
    TITLE "10:cjc171_01212"
    INDEX 01 00:30:21
  TRACK 25 AUDIO
    TITLE "0:"
    INDEX 01 00:33:18
  TRACK 26 AUDIO
    TITLE "8:cjc171_01213"
    INDEX 01 00:34:21
  TRACK 27 AUDIO
    TITLE "0:"
    INDEX 01 00:35:48
  TRACK 28 AUDIO
    TITLE "9:cjc171_01214"
    INDEX 01 00:36:02
  TRACK 29 AUDIO
    TITLE "0:"
    INDEX 01 00:38:64
  TRACK 30 AUDIO
    TITLE "10:cjc171_01215"
    INDEX 01 00:39:42
  TRACK 31 AUDIO
    TITLE "0:"
    INDEX 01 00:42:28
  TRACK 32 AUDIO
    TITLE "8:cjc171_01216"
    INDEX 01 00:43:32
  TRACK 33 AUDIO
    TITLE "0:"
    INDEX 01 00:45:13
  TRACK 34 AUDIO
    TITLE "9:cjc171_01217"
    INDEX 01 00:45:42
  TRACK 35 AUDIO
    TITLE "0:"
    INDEX 01 00:47:41
  TRACK 36 AUDIO
    TITLE "10:cjc171_01218"
    INDEX 01 00:48:19
  TRACK 37 AUDIO
    TITLE "0:"
    INDEX 01 00:50:20
  TRACK 38 AUDIO
    TITLE "8:cjc171_01219"
    INDEX 01 00:51:21
  TRACK 39 AUDIO
    TITLE "0:"
    INDEX 01 00:52:42
  TRACK 40 AUDIO
    TITLE "9:cjc171_01220"
    INDEX 01 00:52:70
  TRACK 41 AUDIO
    TITLE "0:"
    INDEX 01 00:54:71
  TRACK 42 AUDIO
    TITLE "10:cjc171_01221"
    INDEX 01 00:55:49
  TRACK 43 AUDIO
    TITLE "0:"
    INDEX 01 00:57:49
  TRACK 44 AUDIO
    TITLE "8:cjc171_01222"
    INDEX 01 00:58:49
  TRACK 45 AUDIO
    TITLE "0:"
    INDEX 01 01:00:03
  TRACK 46 AUDIO
    TITLE "9:cjc171_01223"
    INDEX 01 01:00:32
  TRACK 47 AUDIO
    TITLE "0:"
    INDEX 01 01:03:13
  TRACK 48 AUDIO
    TITLE "10:cjc171_01224"
    INDEX 01 01:03:70
  TRACK 49 AUDIO
    TITLE "0:"
    INDEX 01 01:06:48
  TRACK 50 AUDIO
    TITLE "8:cjc171_01225"
    INDEX 01 01:07:52
  TRACK 51 AUDIO
    TITLE "0:"
    INDEX 01 01:08:71
  TRACK 52 AUDIO
    TITLE "9:cjc171_01226"
    INDEX 01 01:09:25
  TRACK 53 AUDIO
    TITLE "0:"
    INDEX 01 01:11:04
  TRACK 54 AUDIO
    TITLE "10:cjc171_01227"
    INDEX 01 01:11:59
  TRACK 55 AUDIO
    TITLE "0:"
    INDEX 01 01:13:39
  TRACK 56 AUDIO
    TITLE "8:cjc171_01228"
    INDEX 01 01:14:42
  TRACK 57 AUDIO
    TITLE "0:"
    INDEX 01 01:15:47
  TRACK 58 AUDIO
    TITLE "9:cjc171_01229"
    INDEX 01 01:16:02
  TRACK 59 AUDIO
    TITLE "0:"
    INDEX 01 01:18:40
  TRACK 60 AUDIO
    TITLE "10:cjc171_01230"
    INDEX 01 01:19:20
  TRACK 61 AUDIO
    TITLE "0:"
    INDEX 01 01:21:58
  TRACK 62 AUDIO
    TITLE "8:cjc171_01231"
    INDEX 01 01:22:57
  TRACK 63 AUDIO
    TITLE "0:"
    INDEX 01 01:23:74
  TRACK 64 AUDIO
    TITLE "9:cjc171_01232"
    INDEX 01 01:24:29
  TRACK 65 AUDIO
    TITLE "0:"
    INDEX 01 01:27:09
  TRACK 66 AUDIO
    TITLE "10:cjc171_01233"
    INDEX 01 01:27:54
  TRACK 67 AUDIO
    TITLE "0:"
    INDEX 01 01:30:35
  TRACK 68 AUDIO
    TITLE "8:cjc171_01234"
    INDEX 01 01:31:35
  TRACK 69 AUDIO
    TITLE "0:"
    INDEX 01 01:32:60
  TRACK 70 AUDIO
    TITLE "9:cjc171_01235"
    INDEX 01 01:33:06
  TRACK 71 AUDIO
    TITLE "0:"
    INDEX 01 01:35:34
  TRACK 72 AUDIO
    TITLE "10:cjc171_01236"
    INDEX 01 01:36:02
  TRACK 73 AUDIO
    TITLE "0:"
    INDEX 01 01:38:31
  TRACK 74 AUDIO
    TITLE "8:cjc171_01237"
    INDEX 01 01:39:24
  TRACK 75 AUDIO
    TITLE "0:"
    INDEX 01 01:40:28
  TRACK 76 AUDIO
    TITLE "9:cjc171_01238"
    INDEX 01 01:40:47
  TRACK 77 AUDIO
    TITLE "0:"
    INDEX 01 01:42:66
  TRACK 78 AUDIO
    TITLE "10:cjc171_01239"
    INDEX 01 01:43:38
  TRACK 79 AUDIO
    TITLE "0:"
    INDEX 01 01:45:56
  TRACK 80 AUDIO
    TITLE "8:cjc171_01240"
    INDEX 01 01:46:52
  TRACK 81 AUDIO
    TITLE "0:"
    INDEX 01 01:47:75
  TRACK 82 AUDIO
    TITLE "9:cjc171_01241"
    INDEX 01 01:48:21
  TRACK 83 AUDIO
    TITLE "0:"
    INDEX 01 01:50:65
  TRACK 84 AUDIO
    TITLE "10:cjc171_01242"
    INDEX 01 01:51:35
  TRACK 85 AUDIO
    TITLE "0:"
    INDEX 01 01:54:04
  TRACK 86 AUDIO
    TITLE "8:cjc171_01243"
    INDEX 01 01:54:75
  TRACK 87 AUDIO
    TITLE "0:"
    INDEX 01 01:56:33
  TRACK 88 AUDIO
    TITLE "9:cjc171_01244"
    INDEX 01 01:56:62
  TRACK 89 AUDIO
    TITLE "0:"
    INDEX 01 01:59:15
  TRACK 90 AUDIO
    TITLE "10:cjc171_01245"
    INDEX 01 01:59:68
  TRACK 91 AUDIO
    TITLE "0:"
    INDEX 01 02:02:21
  TRACK 92 AUDIO
    TITLE "8:cjc171_01246"
    INDEX 01 02:03:17
  TRACK 93 AUDIO
    TITLE "0:"
    INDEX 01 02:04:26
  TRACK 94 AUDIO
    TITLE "9:cjc171_01247"
    INDEX 01 02:04:48
  TRACK 95 AUDIO
    TITLE "0:"
    INDEX 01 02:07:21
  TRACK 96 AUDIO
    TITLE "10:cjc171_01248"
    INDEX 01 02:07:70
  TRACK 97 AUDIO
    TITLE "0:"
    INDEX 01 02:10:44
  TRACK 98 AUDIO
    TITLE "8:cjc171_01249"
    INDEX 01 02:11:42
  TRACK 99 AUDIO
    TITLE "0:"
    INDEX 01 02:12:45
  TRACK 100 AUDIO
    TITLE "9:cjc171_01250"
    INDEX 01 02:12:71
  TRACK 101 AUDIO
    TITLE "0:"
    INDEX 01 02:15:46
  TRACK 102 AUDIO
    TITLE "10:cjc171_01251"
    INDEX 01 02:16:24
  TRACK 103 AUDIO
    TITLE "0:"
    INDEX 01 02:18:69
  TRACK 104 AUDIO
    TITLE "8:cjc171_01252"
    INDEX 01 02:19:65
  TRACK 105 AUDIO
    TITLE "0:"
    INDEX 01 02:21:01
  TRACK 106 AUDIO
    TITLE "9:cjc171_01253"
    INDEX 01 02:21:25
  TRACK 107 AUDIO
    TITLE "0:"
    INDEX 01 02:23:08
  TRACK 108 AUDIO
    TITLE "10:cjc171_01254"
    INDEX 01 02:23:53
  TRACK 109 AUDIO
    TITLE "0:"
    INDEX 01 02:25:38
  TRACK 110 AUDIO
    TITLE "8:cjc171_01255"
    INDEX 01 02:26:32
  TRACK 111 AUDIO
    TITLE "0:"
    INDEX 01 02:27:63
  TRACK 112 AUDIO
    TITLE "9:cjc171_01256"
    INDEX 01 02:28:09
  TRACK 113 AUDIO
    TITLE "0:"
    INDEX 01 02:30:08
  TRACK 114 AUDIO
    TITLE "10:cjc171_01257"
    INDEX 01 02:30:53
  TRACK 115 AUDIO
    TITLE "0:"
    INDEX 01 02:32:52
  TRACK 116 AUDIO
    TITLE "8:cjc171_01258"
    INDEX 01 02:33:45
  TRACK 117 AUDIO
    TITLE "0:"
    INDEX 01 02:34:66
  TRACK 118 AUDIO
    TITLE "9:cjc171_01259"
    INDEX 01 02:35:13
  TRACK 119 AUDIO
    TITLE "0:"
    INDEX 01 02:37:30
  TRACK 120 AUDIO
    TITLE "10:cjc171_01260"
    INDEX 01 02:37:75
  TRACK 121 AUDIO
    TITLE "0:"
    INDEX 01 02:40:18
  TRACK 122 AUDIO
    TITLE "8:cjc171_01261"
    INDEX 01 02:41:18
  TRACK 123 AUDIO
    TITLE "0:"
    INDEX 01 02:42:35
  TRACK 124 AUDIO
    TITLE "9:cjc171_01262"
    INDEX 01 02:42:54
  TRACK 125 AUDIO
    TITLE "0:"
    INDEX 01 02:44:37
  TRACK 126 AUDIO
    TITLE "10:cjc171_01263"
    INDEX 01 02:45:11
  TRACK 127 AUDIO
    TITLE "0:"
    INDEX 01 02:46:70
  TRACK 128 AUDIO
    TITLE "8:cjc171_01264"
    INDEX 01 02:48:02
  TRACK 129 AUDIO
    TITLE "0:"
    INDEX 01 02:49:43
  TRACK 130 AUDIO
    TITLE "9:cjc171_01265"
    INDEX 01 02:49:70
  TRACK 131 AUDIO
    TITLE "0:"
    INDEX 01 02:52:33
  TRACK 132 AUDIO
    TITLE "10:cjc171_01266"
    INDEX 01 02:53:13
  TRACK 133 AUDIO
    TITLE "0:"
    INDEX 01 02:55:51
  TRACK 134 AUDIO
    TITLE "8:cjc171_01267"
    INDEX 01 02:56:54
  TRACK 135 AUDIO
    TITLE "0:"
    INDEX 01 02:58:06
  TRACK 136 AUDIO
    TITLE "9:cjc171_01268"
    INDEX 01 02:58:38
  TRACK 137 AUDIO
    TITLE "0:"
    INDEX 01 03:01:46
  TRACK 138 AUDIO
    TITLE "10:cjc171_01269"
    INDEX 01 03:02:24
  TRACK 139 AUDIO
    TITLE "0:"
    INDEX 01 03:05:32
  TRACK 140 AUDIO
    TITLE "8:cjc171_01270"
    INDEX 01 03:06:37
  TRACK 141 AUDIO
    TITLE "0:"
    INDEX 01 03:07:56
  TRACK 142 AUDIO
    TITLE "9:cjc171_01271"
    INDEX 01 03:08:12
  TRACK 143 AUDIO
    TITLE "0:"
    INDEX 01 03:10:29
  TRACK 144 AUDIO
    TITLE "10:cjc171_01272"
    INDEX 01 03:11:07
  TRACK 145 AUDIO
    TITLE "0:"
    INDEX 01 03:13:23
  TRACK 146 AUDIO
    TITLE "8:cjc171_01273"
    INDEX 01 03:14:27
  TRACK 147 AUDIO
    TITLE "0:"
    INDEX 01 03:15:36
  TRACK 148 AUDIO
    TITLE "9:cjc171_01274"
    INDEX 01 03:15:64
  TRACK 149 AUDIO
    TITLE "0:"
    INDEX 01 03:18:17
  TRACK 150 AUDIO
    TITLE "10:cjc171_01275"
    INDEX 01 03:18:72
  TRACK 151 AUDIO
    TITLE "0:"
    INDEX 01 03:21:23
  TRACK 152 AUDIO
    TITLE "8:cjc171_01276"
    INDEX 01 03:22:30
  TRACK 153 AUDIO
    TITLE "0:"
    INDEX 01 03:23:49
  TRACK 154 AUDIO
    TITLE "9:cjc171_01277"
    INDEX 01 03:23:75
  TRACK 155 AUDIO
    TITLE "0:"
    INDEX 01 03:26:63
  TRACK 156 AUDIO
    TITLE "10:cjc171_01278"
    INDEX 01 03:27:43
  TRACK 157 AUDIO
    TITLE "0:"
    INDEX 01 03:30:30
  TRACK 158 AUDIO
    TITLE "8:cjc171_01279"
    INDEX 01 03:31:35
  TRACK 159 AUDIO
    TITLE "0:"
    INDEX 01 03:32:60
  TRACK 160 AUDIO
    TITLE "9:cjc171_01280"
    INDEX 01 03:33:14
  TRACK 161 AUDIO
    TITLE "0:"
    INDEX 01 03:35:49
  TRACK 162 AUDIO
    TITLE "10:cjc171_01281"
    INDEX 01 03:36:32
  TRACK 163 AUDIO
    TITLE "0:"
    INDEX 01 03:38:68
  TRACK 164 AUDIO
    TITLE "8:cjc171_01282"
    INDEX 01 03:40:03
  TRACK 165 AUDIO
    TITLE "0:"
    INDEX 01 03:41:30
  TRACK 166 AUDIO
    TITLE "9:cjc171_01283"
    INDEX 01 03:41:59
  TRACK 167 AUDIO
    TITLE "0:"
    INDEX 01 03:44:01
  TRACK 168 AUDIO
    TITLE "10:cjc171_01284"
    INDEX 01 03:44:51
  TRACK 169 AUDIO
    TITLE "0:"
    INDEX 01 03:46:68
  TRACK 170 AUDIO
    TITLE "8:cjc171_01285"
    INDEX 01 03:47:73
  TRACK 171 AUDIO
    TITLE "0:"
    INDEX 01 03:49:10
  TRACK 172 AUDIO
    TITLE "9:cjc171_01286"
    INDEX 01 03:49:37
  TRACK 173 AUDIO
    TITLE "0:"
    INDEX 01 03:51:52
  TRACK 174 AUDIO
    TITLE "10:cjc171_01287"
    INDEX 01 03:52:29
  TRACK 175 AUDIO
    TITLE "0:"
    INDEX 01 03:54:44
  TRACK 176 AUDIO
    TITLE "8:cjc171_01288"
    INDEX 01 03:55:47
  TRACK 177 AUDIO
    TITLE "0:"
    INDEX 01 03:56:64
  TRACK 178 AUDIO
    TITLE "9:cjc171_01289"
    INDEX 01 03:57:21
  TRACK 179 AUDIO
    TITLE "0:"
    INDEX 01 03:59:28
  TRACK 180 AUDIO
    TITLE "10:cjc171_01290"
    INDEX 01 04:00:07
  TRACK 181 AUDIO
    TITLE "0:"
    INDEX 01 04:02:14
  TRACK 182 AUDIO
    TITLE "8:cjc171_01291"
    INDEX 01 04:03:15
  TRACK 183 AUDIO
    TITLE "0:"
    INDEX 01 04:04:29
  TRACK 184 AUDIO
    TITLE "9:cjc171_01292"
    INDEX 01 04:04:50
  TRACK 185 AUDIO
    TITLE "0:"
    INDEX 01 04:08:11
  TRACK 186 AUDIO
    TITLE "10:cjc171_01293"
    INDEX 01 04:08:62
  TRACK 187 AUDIO
    TITLE "0:"
    INDEX 01 04:12:24
  TRACK 188 AUDIO
    TITLE "8:cjc171_01294"
    INDEX 01 04:13:26
  TRACK 189 AUDIO
    TITLE "0:"
    INDEX 01 04:14:43
  TRACK 190 AUDIO
    TITLE "9:cjc171_01295"
    INDEX 01 04:14:62
  TRACK 191 AUDIO
    TITLE "0:"
    INDEX 01 04:17:53
  TRACK 192 AUDIO
    TITLE "10:cjc171_01296"
    INDEX 01 04:18:23
  TRACK 193 AUDIO
    TITLE "0:"
    INDEX 01 04:21:11
  TRACK 194 AUDIO
    TITLE "8:cjc171_01297"
    INDEX 01 04:22:11
  TRACK 195 AUDIO
    TITLE "0:"
    INDEX 01 04:23:16
  TRACK 196 AUDIO
    TITLE "9:cjc171_01298"
    INDEX 01 04:23:38
  TRACK 197 AUDIO
    TITLE "0:"
    INDEX 01 04:26:05
  TRACK 198 AUDIO
    TITLE "10:cjc171_01299"
    INDEX 01 04:26:52
  TRACK 199 AUDIO
    TITLE "0:"
    INDEX 01 04:29:19
  TRACK 200 AUDIO
    TITLE "8:cjc171_01300"
    INDEX 01 04:30:18
  TRACK 201 AUDIO
    TITLE "0:"
    INDEX 01 04:31:47
  TRACK 202 AUDIO
    TITLE "9:cjc171_01301"
    INDEX 01 04:31:67
  TRACK 203 AUDIO
    TITLE "0:"
    INDEX 01 04:33:73
  TRACK 204 AUDIO
    TITLE "10:cjc171_01302"
    INDEX 01 04:34:42
  TRACK 205 AUDIO
    TITLE "0:"
    INDEX 01 04:36:48
  TRACK 206 AUDIO
    TITLE "8:cjc171_01303"
    INDEX 01 04:37:42
  TRACK 207 AUDIO
    TITLE "0:"
    INDEX 01 04:38:73
  TRACK 208 AUDIO
    TITLE "9:cjc171_01304"
    INDEX 01 04:39:17
  TRACK 209 AUDIO
    TITLE "0:"
    INDEX 01 04:42:31
  TRACK 210 AUDIO
    TITLE "10:cjc171_01305"
    INDEX 01 04:43:05
  TRACK 211 AUDIO
    TITLE "0:"
    INDEX 01 04:46:19
  TRACK 212 AUDIO
    TITLE "8:cjc171_01306"
    INDEX 01 04:47:17
  TRACK 213 AUDIO
    TITLE "0:"
    INDEX 01 04:48:44
  TRACK 214 AUDIO
    TITLE "9:cjc171_01307"
    INDEX 01 04:48:63
  TRACK 215 AUDIO
    TITLE "0:"
    INDEX 01 04:51:11
  TRACK 216 AUDIO
    TITLE "10:cjc171_01308"
    INDEX 01 04:51:56
  TRACK 217 AUDIO
    TITLE "0:"
    INDEX 01 04:54:03
  TRACK 218 AUDIO
    TITLE "8:cjc171_01309"
    INDEX 01 04:54:74
  TRACK 219 AUDIO
    TITLE "0:"
    INDEX 01 04:56:18
  TRACK 220 AUDIO
    TITLE "9:cjc171_01310"
    INDEX 01 04:56:37
  TRACK 221 AUDIO
    TITLE "0:"
    INDEX 01 04:58:73
  TRACK 222 AUDIO
    TITLE "10:cjc171_01311"
    INDEX 01 04:59:41
  TRACK 223 AUDIO
    TITLE "0:"
    INDEX 01 05:02:03
  TRACK 224 AUDIO
    TITLE "8:cjc171_01312"
    INDEX 01 05:02:71
  TRACK 225 AUDIO
    TITLE "0:"
    INDEX 01 05:04:11
  TRACK 226 AUDIO
    TITLE "9:cjc171_01313"
    INDEX 01 05:04:31
  TRACK 227 AUDIO
    TITLE "0:"
    INDEX 01 05:06:45
  TRACK 228 AUDIO
    TITLE "10:cjc171_01314"
    INDEX 01 05:07:15
  TRACK 229 AUDIO
    TITLE "0:"
    INDEX 01 05:09:32
  TRACK 230 AUDIO
    TITLE "8:cjc171_01315"
    INDEX 01 05:10:24
  TRACK 231 AUDIO
    TITLE "0:"
    INDEX 01 05:11:45
  TRACK 232 AUDIO
    TITLE "9:cjc171_01316"
    INDEX 01 05:11:68
  TRACK 233 AUDIO
    TITLE "0:"
    INDEX 01 05:14:08
  TRACK 234 AUDIO
    TITLE "10:cjc171_01317"
    INDEX 01 05:14:55
  TRACK 235 AUDIO
    TITLE "0:"
    INDEX 01 05:16:71
  TRACK 236 AUDIO
    TITLE "8:cjc171_01318"
    INDEX 01 05:17:67
  TRACK 237 AUDIO
    TITLE "0:"
    INDEX 01 05:19:07
  TRACK 238 AUDIO
    TITLE "9:cjc171_01319"
    INDEX 01 05:19:27
  TRACK 239 AUDIO
    TITLE "0:"
    INDEX 01 05:21:02
  TRACK 240 AUDIO
    TITLE "10:cjc171_01320"
    INDEX 01 05:21:47
  TRACK 241 AUDIO
    TITLE "0:"
    INDEX 01 05:23:22
  TRACK 242 AUDIO
    TITLE "8:cjc171_01321"
    INDEX 01 05:24:24
  TRACK 243 AUDIO
    TITLE "0:"
    INDEX 01 05:25:33
  TRACK 244 AUDIO
    TITLE "9:cjc171_01322"
    INDEX 01 05:25:62
  TRACK 245 AUDIO
    TITLE "0:"
    INDEX 01 05:27:53
  TRACK 246 AUDIO
    TITLE "10:cjc171_01323"
    INDEX 01 05:28:37
  TRACK 247 AUDIO
    TITLE "0:"
    INDEX 01 05:30:26
  TRACK 248 AUDIO
    TITLE "8:cjc171_01324"
    INDEX 01 05:31:32
  TRACK 249 AUDIO
    TITLE "0:"
    INDEX 01 05:32:41
  TRACK 250 AUDIO
    TITLE "9:cjc171_01325"
    INDEX 01 05:32:72
  TRACK 251 AUDIO
    TITLE "0:"
    INDEX 01 05:35:02
  TRACK 252 AUDIO
    TITLE "10:cjc171_01326"
    INDEX 01 05:35:55
  TRACK 253 AUDIO
    TITLE "0:"
    INDEX 01 05:37:60
  TRACK 254 AUDIO
    TITLE "8:cjc171_01327"
    INDEX 01 05:38:63
  TRACK 255 AUDIO
    TITLE "0:"
    INDEX 01 05:40:17
  TRACK 256 AUDIO
    TITLE "9:cjc171_01328"
    INDEX 01 05:40:48
  TRACK 257 AUDIO
    TITLE "0:"
    INDEX 01 05:42:39
  TRACK 258 AUDIO
    TITLE "10:cjc171_01329"
    INDEX 01 05:43:19
  TRACK 259 AUDIO
    TITLE "0:"
    INDEX 01 05:45:12
  TRACK 260 AUDIO
    TITLE "8:cjc171_01330"
    INDEX 01 05:46:18
  TRACK 261 AUDIO
    TITLE "0:"
    INDEX 01 05:47:39
  TRACK 262 AUDIO
    TITLE "9:cjc171_01331"
    INDEX 01 05:47:70
  TRACK 263 AUDIO
    TITLE "0:"
    INDEX 01 05:51:17
  TRACK 264 AUDIO
    TITLE "10:cjc171_01332"
    INDEX 01 05:51:70
  TRACK 265 AUDIO
    TITLE "0:"
    INDEX 01 05:55:16
  TRACK 266 AUDIO
    TITLE "8:cjc171_01333"
    INDEX 01 05:56:20
  TRACK 267 AUDIO
    TITLE "0:"
    INDEX 01 05:57:55
  TRACK 268 AUDIO
    TITLE "9:cjc171_01334"
    INDEX 01 05:58:15
  TRACK 269 AUDIO
    TITLE "0:"
    INDEX 01 06:00:67
  TRACK 270 AUDIO
    TITLE "10:cjc171_01335"
    INDEX 01 06:01:45
  TRACK 271 AUDIO
    TITLE "0:"
    INDEX 01 06:04:21
  TRACK 272 AUDIO
    TITLE "8:cjc171_01336"
    INDEX 01 06:05:25
  TRACK 273 AUDIO
    TITLE "0:"
    INDEX 01 06:06:61
  TRACK 274 AUDIO
    TITLE "9:cjc171_01337"
    INDEX 01 06:07:16
  TRACK 275 AUDIO
    TITLE "0:"
    INDEX 01 06:09:70
  TRACK 276 AUDIO
    TITLE "10:cjc171_01338"
    INDEX 01 06:10:47
  TRACK 277 AUDIO
    TITLE "0:"
    INDEX 01 06:13:26
  TRACK 278 AUDIO
    TITLE "8:cjc171_01339"
    INDEX 01 06:14:30
  TRACK 279 AUDIO
    TITLE "0:"
    INDEX 01 06:15:43
  TRACK 280 AUDIO
    TITLE "9:cjc171_01340"
    INDEX 01 06:15:72
  TRACK 281 AUDIO
    TITLE "0:"
    INDEX 01 06:17:51
  TRACK 282 AUDIO
    TITLE "10:cjc171_01341"
    INDEX 01 06:18:29
  TRACK 283 AUDIO
    TITLE "0:"
    INDEX 01 06:20:09
  TRACK 284 AUDIO
    TITLE "8:cjc171_01342"
    INDEX 01 06:21:12
  TRACK 285 AUDIO
    TITLE "0:"
    INDEX 01 06:22:27
  TRACK 286 AUDIO
    TITLE "9:cjc171_01343"
    INDEX 01 06:22:56
  TRACK 287 AUDIO
    TITLE "0:"
    INDEX 01 06:24:53
  TRACK 288 AUDIO
    TITLE "10:cjc171_01344"
    INDEX 01 06:25:31
  TRACK 289 AUDIO
    TITLE "0:"
    INDEX 01 06:27:28
  TRACK 290 AUDIO
    TITLE "8:cjc171_01345"
    INDEX 01 06:28:32
  TRACK 291 AUDIO
    TITLE "0:"
    INDEX 01 06:29:35
  TRACK 292 AUDIO
    TITLE "9:cjc171_01346"
    INDEX 01 06:29:66
  TRACK 293 AUDIO
    TITLE "0:"
    INDEX 01 06:31:55
  TRACK 294 AUDIO
    TITLE "10:cjc171_01347"
    INDEX 01 06:32:37
  TRACK 295 AUDIO
    TITLE "0:"
    INDEX 01 06:34:26
  TRACK 296 AUDIO
    TITLE "8:cjc171_01348"
    INDEX 01 06:35:30
  TRACK 297 AUDIO
    TITLE "0:"
    INDEX 01 06:36:47
  TRACK 298 AUDIO
    TITLE "9:cjc171_01349"
    INDEX 01 06:36:74
  TRACK 299 AUDIO
    TITLE "0:"
    INDEX 01 06:38:73
  TRACK 300 AUDIO
    TITLE "10:cjc171_01350"
    INDEX 01 06:39:53
  TRACK 301 AUDIO
    TITLE "0:"
    INDEX 01 06:41:50
  TRACK 302 AUDIO
    TITLE "8:cjc171_01351"
    INDEX 01 06:42:49
  TRACK 303 AUDIO
    TITLE "0:"
    INDEX 01 06:43:57
  TRACK 304 AUDIO
    TITLE "9:cjc171_01352"
    INDEX 01 06:44:07
  TRACK 305 AUDIO
    TITLE "0:"
    INDEX 01 06:46:04
  TRACK 306 AUDIO
    TITLE "10:cjc171_01353"
    INDEX 01 06:46:49
  TRACK 307 AUDIO
    TITLE "0:"
    INDEX 01 06:48:48
  TRACK 308 AUDIO
    TITLE "8:cjc171_01354"
    INDEX 01 06:49:46
  TRACK 309 AUDIO
    TITLE "0:"
    INDEX 01 06:50:72
  TRACK 310 AUDIO
    TITLE "9:cjc171_01355"
    INDEX 01 06:51:21
  TRACK 311 AUDIO
    TITLE "0:"
    INDEX 01 06:53:41
  TRACK 312 AUDIO
    TITLE "10:cjc171_01356"
    INDEX 01 06:54:09
  TRACK 313 AUDIO
    TITLE "0:"
    INDEX 01 06:56:32
  TRACK 314 AUDIO
    TITLE "8:cjc171_01357"
    INDEX 01 06:57:23
  TRACK 315 AUDIO
    TITLE "0:"
    INDEX 01 06:58:31
  TRACK 316 AUDIO
    TITLE "9:cjc171_01358"
    INDEX 01 06:58:52
  TRACK 317 AUDIO
    TITLE "0:"
    INDEX 01 07:01:43
  TRACK 318 AUDIO
    TITLE "10:cjc171_01359"
    INDEX 01 07:02:15
  TRACK 319 AUDIO
    TITLE "0:"
    INDEX 01 07:05:05
  TRACK 320 AUDIO
    TITLE "8:cjc171_01360"
    INDEX 01 07:06:03
  TRACK 321 AUDIO
    TITLE "0:"
    INDEX 01 07:07:16
  TRACK 322 AUDIO
    TITLE "9:cjc171_01361"
    INDEX 01 07:07:36
  TRACK 323 AUDIO
    TITLE "0:"
    INDEX 01 07:09:42
  TRACK 324 AUDIO
    TITLE "10:cjc171_01362"
    INDEX 01 07:10:16
  TRACK 325 AUDIO
    TITLE "0:"
    INDEX 01 07:12:25
  TRACK 326 AUDIO
    TITLE "8:cjc171_01363"
    INDEX 01 07:13:21
  TRACK 327 AUDIO
    TITLE "0:"
    INDEX 01 07:14:24
  TRACK 328 AUDIO
    TITLE "9:cjc171_01364"
    INDEX 01 07:14:45
  TRACK 329 AUDIO
    TITLE "0:"
    INDEX 01 07:16:64
  TRACK 330 AUDIO
    TITLE "10:cjc171_01365"
    INDEX 01 07:17:32
  TRACK 331 AUDIO
    TITLE "0:"
    INDEX 01 07:19:51
  TRACK 332 AUDIO
    TITLE "8:cjc171_01366"
    INDEX 01 07:20:44
  TRACK 333 AUDIO
    TITLE "0:"
    INDEX 01 07:21:67
  TRACK 334 AUDIO
    TITLE "9:cjc171_01367"
    INDEX 01 07:22:16
  TRACK 335 AUDIO
    TITLE "0:"
    INDEX 01 07:24:50
  TRACK 336 AUDIO
    TITLE "10:cjc171_01368"
    INDEX 01 07:25:20
  TRACK 337 AUDIO
    TITLE "0:"
    INDEX 01 07:27:56
  TRACK 338 AUDIO
    TITLE "8:cjc171_01369"
    INDEX 01 07:28:49
  TRACK 339 AUDIO
    TITLE "0:"
    INDEX 01 07:29:57
  TRACK 340 AUDIO
    TITLE "9:cjc171_01370"
    INDEX 01 07:30:03
  TRACK 341 AUDIO
    TITLE "0:"
    INDEX 01 07:31:54
  TRACK 342 AUDIO
    TITLE "10:cjc171_01371"
    INDEX 01 07:32:26
  TRACK 343 AUDIO
    TITLE "0:"
    INDEX 01 07:34:03
  TRACK 344 AUDIO
    TITLE "8:cjc171_01372"
    INDEX 01 07:34:74
  TRACK 345 AUDIO
    TITLE "0:"
    INDEX 01 07:36:16
  TRACK 346 AUDIO
    TITLE "9:cjc171_01373"
    INDEX 01 07:36:37
  TRACK 347 AUDIO
    TITLE "0:"
    INDEX 01 07:38:36
  TRACK 348 AUDIO
    TITLE "10:cjc171_01374"
    INDEX 01 07:39:08
  TRACK 349 AUDIO
    TITLE "0:"
    INDEX 01 07:41:05
  TRACK 350 AUDIO
    TITLE "8:cjc171_01375"
    INDEX 01 07:42:06
  TRACK 351 AUDIO
    TITLE "0:"
    INDEX 01 07:43:18
  TRACK 352 AUDIO
    TITLE "9:cjc171_01376"
    INDEX 01 07:43:39
  TRACK 353 AUDIO
    TITLE "0:"
    INDEX 01 07:46:16
  TRACK 354 AUDIO
    TITLE "10:cjc171_01377"
    INDEX 01 07:46:61
  TRACK 355 AUDIO
    TITLE "0:"
    INDEX 01 07:49:40
  TRACK 356 AUDIO
    TITLE "8:cjc171_01378"
    INDEX 01 07:50:35
  TRACK 357 AUDIO
    TITLE "0:"
    INDEX 01 07:51:60
  TRACK 358 AUDIO
    TITLE "9:cjc171_01379"
    INDEX 01 07:52:09
  TRACK 359 AUDIO
    TITLE "0:"
    INDEX 01 07:54:04
  TRACK 360 AUDIO
    TITLE "10:cjc171_01380"
    INDEX 01 07:54:55
  TRACK 361 AUDIO
    TITLE "0:"
    INDEX 01 07:56:50
  TRACK 362 AUDIO
    TITLE "8:cjc171_01381"
    INDEX 01 07:57:51
  TRACK 363 AUDIO
    TITLE "0:"
    INDEX 01 07:58:68
  TRACK 364 AUDIO
    TITLE "9:cjc171_01382"
    INDEX 01 07:59:25
  TRACK 365 AUDIO
    TITLE "0:"
    INDEX 01 08:01:70
  TRACK 366 AUDIO
    TITLE "10:cjc171_01383"
    INDEX 01 08:02:54
  TRACK 367 AUDIO
    TITLE "0:"
    INDEX 01 08:05:31
  TRACK 368 AUDIO
    TITLE "8:cjc171_01384"
    INDEX 01 08:06:36
  TRACK 369 AUDIO
    TITLE "0:"
    INDEX 01 08:07:59
  TRACK 370 AUDIO
    TITLE "9:cjc171_01385"
    INDEX 01 08:08:14
  TRACK 371 AUDIO
    TITLE "0:"
    INDEX 01 08:10:56
  TRACK 372 AUDIO
    TITLE "10:cjc171_01386"
    INDEX 01 08:11:39
  TRACK 373 AUDIO
    TITLE "0:"
    INDEX 01 08:14:06
  TRACK 374 AUDIO
    TITLE "8:cjc171_01387"
    INDEX 01 08:15:10
  TRACK 375 AUDIO
    TITLE "0:"
    INDEX 01 08:16:33
  TRACK 376 AUDIO
    TITLE "9:cjc171_01388"
    INDEX 01 08:16:68
  TRACK 377 AUDIO
    TITLE "0:"
    INDEX 01 08:18:47
  TRACK 378 AUDIO
    TITLE "10:cjc171_01389"
    INDEX 01 08:19:33
  TRACK 379 AUDIO
    TITLE "0:"
    INDEX 01 08:21:12
  TRACK 380 AUDIO
    TITLE "8:cjc171_01390"
    INDEX 01 08:22:18
  TRACK 381 AUDIO
    TITLE "0:"
    INDEX 01 08:23:35
  TRACK 382 AUDIO
    TITLE "9:cjc171_01391"
    INDEX 01 08:23:64
  TRACK 383 AUDIO
    TITLE "0:"
    INDEX 01 08:27:39
  TRACK 384 AUDIO
    TITLE "10:cjc171_01392"
    INDEX 01 08:28:16
  TRACK 385 AUDIO
    TITLE "0:"
    INDEX 01 08:31:66
  TRACK 386 AUDIO
    TITLE "8:cjc171_01393"
    INDEX 01 08:32:69
  TRACK 387 AUDIO
    TITLE "0:"
    INDEX 01 08:34:17
  TRACK 388 AUDIO
    TITLE "9:cjc171_01394"
    INDEX 01 08:34:46
  TRACK 389 AUDIO
    TITLE "0:"
    INDEX 01 08:37:39
  TRACK 390 AUDIO
    TITLE "10:cjc171_01395"
    INDEX 01 08:38:21
  TRACK 391 AUDIO
    TITLE "0:"
    INDEX 01 08:41:11
  TRACK 392 AUDIO
    TITLE "8:cjc171_01396"
    INDEX 01 08:42:19
  TRACK 393 AUDIO
    TITLE "0:"
    INDEX 01 08:43:20
  TRACK 394 AUDIO
    TITLE "9:cjc171_01397"
    INDEX 01 08:43:49
  TRACK 395 AUDIO
    TITLE "0:"
    INDEX 01 08:46:07
  TRACK 396 AUDIO
    TITLE "10:cjc171_01398"
    INDEX 01 08:46:59
  TRACK 397 AUDIO
    TITLE "0:"
    INDEX 01 08:49:15
  TRACK 398 AUDIO
    TITLE "8:cjc171_01399"
    INDEX 01 08:50:20
  TRACK 399 AUDIO
    TITLE "0:"
    INDEX 01 08:51:41
  TRACK 400 AUDIO
    TITLE "9:cjc171_01400"
    INDEX 01 08:51:70
  TRACK 401 AUDIO
    TITLE "0:"
    INDEX 01 08:53:57
  TRACK 402 AUDIO
    TITLE "10:cjc171_01401"
    INDEX 01 08:54:35
  TRACK 403 AUDIO
    TITLE "0:"
    INDEX 01 08:56:21
  TRACK 404 AUDIO
    TITLE "8:cjc171_01402"
    INDEX 01 08:57:24
  TRACK 405 AUDIO
    TITLE "0:"
    INDEX 01 08:58:53
  TRACK 406 AUDIO
    TITLE "9:cjc171_01403"
    INDEX 01 08:59:09
  TRACK 407 AUDIO
    TITLE "0:"
    INDEX 01 09:01:65
  TRACK 408 AUDIO
    TITLE "10:cjc171_01404"
    INDEX 01 09:02:45
  TRACK 409 AUDIO
    TITLE "0:"
    INDEX 01 09:05:21
  TRACK 410 AUDIO
    TITLE "8:cjc171_01405"
    INDEX 01 09:06:25
  TRACK 411 AUDIO
    TITLE "0:"
    INDEX 01 09:07:38
  TRACK 412 AUDIO
    TITLE "9:cjc171_01406"
    INDEX 01 09:07:67
  TRACK 413 AUDIO
    TITLE "0:"
    INDEX 01 09:09:66
  TRACK 414 AUDIO
    TITLE "10:cjc171_01407"
    INDEX 01 09:10:44
  TRACK 415 AUDIO
    TITLE "0:"
    INDEX 01 09:12:43
  TRACK 416 AUDIO
    TITLE "8:cjc171_01408"
    INDEX 01 09:13:46
  TRACK 417 AUDIO
    TITLE "0:"
    INDEX 01 09:14:60
  TRACK 418 AUDIO
    TITLE "9:cjc171_01409"
    INDEX 01 09:15:14
  TRACK 419 AUDIO
    TITLE "0:"
    INDEX 01 09:17:11
  TRACK 420 AUDIO
    TITLE "10:cjc171_01410"
    INDEX 01 09:17:64
  TRACK 421 AUDIO
    TITLE "0:"
    INDEX 01 09:19:61
  TRACK 422 AUDIO
    TITLE "8:cjc171_01411"
    INDEX 01 09:20:62
  TRACK 423 AUDIO
    TITLE "0:"
    INDEX 01 09:22:04
  TRACK 424 AUDIO
    TITLE "9:cjc171_01412"
    INDEX 01 09:22:32
  TRACK 425 AUDIO
    TITLE "0:"
    INDEX 01 09:25:57
  TRACK 426 AUDIO
    TITLE "10:cjc171_01413"
    INDEX 01 09:26:30
  TRACK 427 AUDIO
    TITLE "0:"
    INDEX 01 09:29:51
  TRACK 428 AUDIO
    TITLE "8:cjc171_01414"
    INDEX 01 09:30:47
  TRACK 429 AUDIO
    TITLE "0:"
    INDEX 01 09:31:72
  TRACK 430 AUDIO
    TITLE "9:cjc171_01415"
    INDEX 01 09:32:16
  TRACK 431 AUDIO
    TITLE "0:"
    INDEX 01 09:34:31
  TRACK 432 AUDIO
    TITLE "10:cjc171_01416"
    INDEX 01 09:34:74
  TRACK 433 AUDIO
    TITLE "0:"
    INDEX 01 09:37:14
  TRACK 434 AUDIO
    TITLE "8:cjc171_01417"
    INDEX 01 09:38:07
  TRACK 435 AUDIO
    TITLE "0:"
    INDEX 01 09:39:15
  TRACK 436 AUDIO
    TITLE "9:cjc171_01418"
    INDEX 01 09:39:36
  TRACK 437 AUDIO
    TITLE "0:"
    INDEX 01 09:41:15
  TRACK 438 AUDIO
    TITLE "10:cjc171_01419"
    INDEX 01 09:41:58
  TRACK 439 AUDIO
    TITLE "0:"
    INDEX 01 09:43:38
  TRACK 440 AUDIO
    TITLE "8:cjc171_01420"
    INDEX 01 09:44:29
  TRACK 441 AUDIO
    TITLE "0:"
    INDEX 01 09:45:35
  TRACK 442 AUDIO
    TITLE "9:cjc171_01421"
    INDEX 01 09:45:54
  TRACK 443 AUDIO
    TITLE "0:"
    INDEX 01 09:47:73
  TRACK 444 AUDIO
    TITLE "10:cjc171_01422"
    INDEX 01 09:48:43
  TRACK 445 AUDIO
    TITLE "0:"
    INDEX 01 09:50:61
  TRACK 446 AUDIO
    TITLE "8:cjc171_01423"
    INDEX 01 09:51:55
  TRACK 447 AUDIO
    TITLE "0:"
    INDEX 01 09:52:72
  TRACK 448 AUDIO
    TITLE "9:cjc171_01424"
    INDEX 01 09:53:28
  TRACK 449 AUDIO
    TITLE "0:"
    INDEX 01 09:55:39
  TRACK 450 AUDIO
    TITLE "10:cjc171_01425"
    INDEX 01 09:56:15
  TRACK 451 AUDIO
    TITLE "0:"
    INDEX 01 09:58:26
  TRACK 452 AUDIO
    TITLE "8:cjc171_01426"
    INDEX 01 09:59:27
  TRACK 453 AUDIO
    TITLE "0:"
    INDEX 01 10:00:48
  TRACK 454 AUDIO
    TITLE "9:cjc171_01427"
    INDEX 01 10:00:70
  TRACK 455 AUDIO
    TITLE "0:"
    INDEX 01 10:03:03
  TRACK 456 AUDIO
    TITLE "10:cjc171_01428"
    INDEX 01 10:03:58
  TRACK 457 AUDIO
    TITLE "0:"
    INDEX 01 10:05:63
  TRACK 458 AUDIO
    TITLE "8:cjc171_01429"
    INDEX 01 10:06:72
  TRACK 459 AUDIO
    TITLE "0:"
    INDEX 01 10:08:01
  TRACK 460 AUDIO
    TITLE "9:cjc171_01430"
    INDEX 01 10:08:20
  TRACK 461 AUDIO
    TITLE "0:"
    INDEX 01 10:10:13
  TRACK 462 AUDIO
    TITLE "10:cjc171_01431"
    INDEX 01 10:10:56
  TRACK 463 AUDIO
    TITLE "0:"
    INDEX 01 10:12:49
  TRACK 464 AUDIO
    TITLE "8:cjc171_01432"
    INDEX 01 10:13:45
  TRACK 465 AUDIO
    TITLE "0:"
    INDEX 01 10:14:48
  TRACK 466 AUDIO
    TITLE "9:cjc171_01433"
    INDEX 01 10:14:68
  TRACK 467 AUDIO
    TITLE "0:"
    INDEX 01 10:16:43
  TRACK 468 AUDIO
    TITLE "10:cjc171_01434"
    INDEX 01 10:17:15
  TRACK 469 AUDIO
    TITLE "0:"
    INDEX 01 10:18:66
  TRACK 470 AUDIO
    TITLE "8:cjc171_01435"
    INDEX 01 10:19:61
  TRACK 471 AUDIO
    TITLE "0:"
    INDEX 01 10:21:09
  TRACK 472 AUDIO
    TITLE "9:cjc171_01436"
    INDEX 01 10:21:33
  TRACK 473 AUDIO
    TITLE "0:"
    INDEX 01 10:23:55
  TRACK 474 AUDIO
    TITLE "10:cjc171_01437"
    INDEX 01 10:24:25
  TRACK 475 AUDIO
    TITLE "0:"
    INDEX 01 10:26:47
  TRACK 476 AUDIO
    TITLE "8:cjc171_01438"
    INDEX 01 10:27:43
  TRACK 477 AUDIO
    TITLE "0:"
    INDEX 01 10:28:70
  TRACK 478 AUDIO
    TITLE "9:cjc171_01439"
    INDEX 01 10:29:14
  TRACK 479 AUDIO
    TITLE "0:"
    INDEX 01 10:31:37
  TRACK 480 AUDIO
    TITLE "10:cjc171_01440"
    INDEX 01 10:32:05
  TRACK 481 AUDIO
    TITLE "0:"
    INDEX 01 10:34:25
  TRACK 482 AUDIO
    TITLE "8:cjc171_01441"
    INDEX 01 10:35:25
  TRACK 483 AUDIO
    TITLE "0:"
    INDEX 01 10:36:56
  TRACK 484 AUDIO
    TITLE "9:cjc171_01442"
    INDEX 01 10:37:12
  TRACK 485 AUDIO
    TITLE "0:"
    INDEX 01 10:39:21
  TRACK 486 AUDIO
    TITLE "10:cjc171_01443"
    INDEX 01 10:39:70
  TRACK 487 AUDIO
    TITLE "0:"
    INDEX 01 10:42:03
  TRACK 488 AUDIO
    TITLE "8:cjc171_01444"
    INDEX 01 10:43:05
  TRACK 489 AUDIO
    TITLE "0:"
    INDEX 01 10:44:04
  TRACK 490 AUDIO
    TITLE "9:cjc171_01445"
    INDEX 01 10:44:32
  TRACK 491 AUDIO
    TITLE "0:"
    INDEX 01 10:46:03
  TRACK 492 AUDIO
    TITLE "10:cjc171_01446"
    INDEX 01 10:46:58
  TRACK 493 AUDIO
    TITLE "0:"
    INDEX 01 10:48:29
  TRACK 494 AUDIO
    TITLE "8:cjc171_01447"
    INDEX 01 10:49:33
  TRACK 495 AUDIO
    TITLE "0:"
    INDEX 01 10:50:50
  TRACK 496 AUDIO
    TITLE "9:cjc171_01448"
    INDEX 01 10:51:04
  TRACK 497 AUDIO
    TITLE "0:"
    INDEX 01 10:53:36
  TRACK 498 AUDIO
    TITLE "10:cjc171_01449"
    INDEX 01 10:54:16
  TRACK 499 AUDIO
    TITLE "0:"
    INDEX 01 10:56:50
  TRACK 500 AUDIO
    TITLE "8:cjc171_01450"
    INDEX 01 10:57:56
  TRACK 501 AUDIO
    TITLE "0:"
    INDEX 01 10:58:69
  TRACK 502 AUDIO
    TITLE "9:cjc171_01451"
    INDEX 01 10:59:25
  TRACK 503 AUDIO
    TITLE "0:"
    INDEX 01 11:01:57
  TRACK 504 AUDIO
    TITLE "10:cjc171_01452"
    INDEX 01 11:02:37
  TRACK 505 AUDIO
    TITLE "0:"
    INDEX 01 11:04:70
  TRACK 506 AUDIO
    TITLE "8:cjc171_01453"
    INDEX 01 11:05:75
  TRACK 507 AUDIO
    TITLE "0:"
    INDEX 01 11:07:09
  TRACK 508 AUDIO
    TITLE "9:cjc171_01454"
    INDEX 01 11:07:37
  TRACK 509 AUDIO
    TITLE "0:"
    INDEX 01 11:09:28
  TRACK 510 AUDIO
    TITLE "10:cjc171_01455"
    INDEX 01 11:10:07
  TRACK 511 AUDIO
    TITLE "0:"
    INDEX 01 11:11:72
  TRACK 512 AUDIO
    TITLE "8:cjc171_01456"
    INDEX 01 11:13:02
  TRACK 513 AUDIO
    TITLE "0:"
    INDEX 01 11:14:29
  TRACK 514 AUDIO
    TITLE "9:cjc171_01457"
    INDEX 01 11:14:62
  TRACK 515 AUDIO
    TITLE "0:"
    INDEX 01 11:17:62
  TRACK 516 AUDIO
    TITLE "10:cjc171_01458"
    INDEX 01 11:18:42
  TRACK 517 AUDIO
    TITLE "0:"
    INDEX 01 11:21:45
  TRACK 518 AUDIO
    TITLE "8:cjc171_01459"
    INDEX 01 11:22:50
  TRACK 519 AUDIO
    TITLE "0:"
    INDEX 01 11:23:65
  TRACK 520 AUDIO
    TITLE "9:cjc171_01460"
    INDEX 01 11:24:21
  TRACK 521 AUDIO
    TITLE "0:"
    INDEX 01 11:26:18
  TRACK 522 AUDIO
    TITLE "10:cjc171_01461"
    INDEX 01 11:26:71
  TRACK 523 AUDIO
    TITLE "0:"
    INDEX 01 11:28:70
  TRACK 524 AUDIO
    TITLE "8:cjc171_01462"
    INDEX 01 11:29:75
  TRACK 525 AUDIO
    TITLE "0:"
    INDEX 01 11:31:16
  TRACK 526 AUDIO
    TITLE "9:cjc171_01463"
    INDEX 01 11:31:45
  TRACK 527 AUDIO
    TITLE "0:"
    INDEX 01 11:33:67
  TRACK 528 AUDIO
    TITLE "10:cjc171_01464"
    INDEX 01 11:34:47
  TRACK 529 AUDIO
    TITLE "0:"
    INDEX 01 11:36:70
  TRACK 530 AUDIO
    TITLE "8:cjc171_01465"
    INDEX 01 11:37:75
  TRACK 531 AUDIO
    TITLE "0:"
    INDEX 01 11:39:01
  TRACK 532 AUDIO
    TITLE "9:cjc171_01466"
    INDEX 01 11:39:33
  TRACK 533 AUDIO
    TITLE "0:"
    INDEX 01 11:41:14
  TRACK 534 AUDIO
    TITLE "10:cjc171_01467"
    INDEX 01 11:41:71
  TRACK 535 AUDIO
    TITLE "0:"
    INDEX 01 11:43:50
  TRACK 536 AUDIO
    TITLE "8:cjc171_01468"
    INDEX 01 11:44:57
  TRACK 537 AUDIO
    TITLE "0:"
    INDEX 01 11:45:70
  TRACK 538 AUDIO
    TITLE "9:cjc171_01469"
    INDEX 01 11:46:25
  TRACK 539 AUDIO
    TITLE "0:"
    INDEX 01 11:48:06
  TRACK 540 AUDIO
    TITLE "10:cjc171_01470"
    INDEX 01 11:48:59
  TRACK 541 AUDIO
    TITLE "0:"
    INDEX 01 11:50:40
  TRACK 542 AUDIO
    TITLE "8:cjc171_01471"
    INDEX 01 11:51:40
  TRACK 543 AUDIO
    TITLE "0:"
    INDEX 01 11:52:74
  TRACK 544 AUDIO
    TITLE "9:cjc171_01472"
    INDEX 01 11:53:19
  TRACK 545 AUDIO
    TITLE "0:"
    INDEX 01 11:55:71
  TRACK 546 AUDIO
    TITLE "10:cjc171_01473"
    INDEX 01 11:56:43
  TRACK 547 AUDIO
    TITLE "0:"
    INDEX 01 11:59:20
  TRACK 548 AUDIO
    TITLE "8:cjc171_01474"
    INDEX 01 12:00:15
  TRACK 549 AUDIO
    TITLE "0:"
    INDEX 01 12:01:21
  TRACK 550 AUDIO
    TITLE "9:cjc171_01475"
    INDEX 01 12:01:42
  TRACK 551 AUDIO
    TITLE "0:"
    INDEX 01 12:03:45
  TRACK 552 AUDIO
    TITLE "10:cjc171_01476"
    INDEX 01 12:04:15
  TRACK 553 AUDIO
    TITLE "0:"
    INDEX 01 12:06:18
  TRACK 554 AUDIO
    TITLE "8:cjc171_01477"
    INDEX 01 12:07:11
  TRACK 555 AUDIO
    TITLE "0:"
    INDEX 01 12:08:44
  TRACK 556 AUDIO
    TITLE "9:cjc171_01478"
    INDEX 01 12:08:66
  TRACK 557 AUDIO
    TITLE "0:"
    INDEX 01 12:10:72
  TRACK 558 AUDIO
    TITLE "10:cjc171_01479"
    INDEX 01 12:11:42
  TRACK 559 AUDIO
    TITLE "0:"
    INDEX 01 12:13:49
  TRACK 560 AUDIO
    TITLE "8:cjc171_01480"
    INDEX 01 12:14:45
  TRACK 561 AUDIO
    TITLE "0:"
    INDEX 01 12:15:58
  TRACK 562 AUDIO
    TITLE "9:cjc171_01481"
    INDEX 01 12:16:04
  TRACK 563 AUDIO
    TITLE "0:"
    INDEX 01 12:18:19
  TRACK 564 AUDIO
    TITLE "10:cjc171_01482"
    INDEX 01 12:18:64
  TRACK 565 AUDIO
    TITLE "0:"
    INDEX 01 12:21:04
  TRACK 566 AUDIO
    TITLE "8:cjc171_01483"
    INDEX 01 12:21:74
  TRACK 567 AUDIO
    TITLE "0:"
    INDEX 01 12:23:22
  TRACK 568 AUDIO
    TITLE "9:cjc171_01484"
    INDEX 01 12:23:44
  TRACK 569 AUDIO
    TITLE "0:"
    INDEX 01 12:25:45
  TRACK 570 AUDIO
    TITLE "10:cjc171_01485"
    INDEX 01 12:26:15
  TRACK 571 AUDIO
    TITLE "0:"
    INDEX 01 12:28:13
  TRACK 572 AUDIO
    TITLE "8:cjc171_01486"
    INDEX 01 12:29:09
  TRACK 573 AUDIO
    TITLE "0:"
    INDEX 01 12:30:22
  TRACK 574 AUDIO
    TITLE "9:cjc171_01487"
    INDEX 01 12:30:44
  TRACK 575 AUDIO
    TITLE "0:"
    INDEX 01 12:32:23
  TRACK 576 AUDIO
    TITLE "10:cjc171_01488"
    INDEX 01 12:32:68
  TRACK 577 AUDIO
    TITLE "0:"
    INDEX 01 12:34:45
  TRACK 578 AUDIO
    TITLE "8:cjc171_01489"
    INDEX 01 12:35:43
  TRACK 579 AUDIO
    TITLE "0:"
    INDEX 01 12:36:42
  TRACK 580 AUDIO
    TITLE "9:cjc171_01490"
    INDEX 01 12:36:62
  TRACK 581 AUDIO
    TITLE "0:"
    INDEX 01 12:39:29
  TRACK 582 AUDIO
    TITLE "10:cjc171_01491"
    INDEX 01 12:39:74
  TRACK 583 AUDIO
    TITLE "0:"
    INDEX 01 12:42:43
  TRACK 584 AUDIO
    TITLE "8:cjc171_01492"
    INDEX 01 12:43:37
  TRACK 585 AUDIO
    TITLE "0:"
    INDEX 01 12:45:10
  TRACK 586 AUDIO
    TITLE "9:cjc171_01493"
    INDEX 01 12:45:30
  TRACK 587 AUDIO
    TITLE "0:"
    INDEX 01 12:47:68
  TRACK 588 AUDIO
    TITLE "10:cjc171_01494"
    INDEX 01 12:48:38
  TRACK 589 AUDIO
    TITLE "0:"
    INDEX 01 12:50:74
  TRACK 590 AUDIO
    TITLE "8:cjc171_01495"
    INDEX 01 12:51:69
  TRACK 591 AUDIO
    TITLE "0:"
    INDEX 01 12:53:04
  TRACK 592 AUDIO
    TITLE "9:cjc171_01496"
    INDEX 01 12:53:21
  TRACK 593 AUDIO
    TITLE "0:"
    INDEX 01 12:55:10
  TRACK 594 AUDIO
    TITLE "10:cjc171_01497"
    INDEX 01 12:55:59
  TRACK 595 AUDIO
    TITLE "0:"
    INDEX 01 12:57:48
  TRACK 596 AUDIO
    TITLE "8:cjc171_01498"
    INDEX 01 12:58:48
  TRACK 597 AUDIO
    TITLE "0:"
    INDEX 01 12:59:71
  TRACK 598 AUDIO
    TITLE "9:cjc171_01499"
    INDEX 01 13:00:15
  TRACK 599 AUDIO
    TITLE "0:"
    INDEX 01 13:02:14
  TRACK 600 AUDIO
    TITLE "10:cjc171_01500"
    INDEX 01 13:02:57
  TRACK 601 AUDIO
    TITLE "0:"
    INDEX 01 13:04:56
